<svg xmlns="http://www.w3.org/2000/svg" width="179.817" height="31.601" viewBox="0 0 179.817 31.601">
  <g id="Group_6" data-name="Group 6" transform="translate(-412.195 -352.074)">
    <g id="Group_2" data-name="Group 2" transform="translate(412.195 352.466)">
      <path id="Path_1" data-name="Path 1" d="M436.567,380.862a3.535,3.535,0,0,1-2.516-1.038l-13.19-13.19a3.559,3.559,0,0,1,5.033-5.033l13.189,13.19a3.555,3.555,0,0,1-2.516,6.071Zm-13.19-19.485a2.741,2.741,0,0,0-1.941,4.682l13.19,13.19a2.744,2.744,0,0,0,3.881-3.881l-13.189-13.19A2.725,2.725,0,0,0,423.378,361.377Z" transform="translate(-416.081 -356.79)" fill="#fff"/>
      <path id="Path_2" data-name="Path 2" d="M423.4,380.862a3.555,3.555,0,0,1-2.514-6.065l13.175-13.174a3.559,3.559,0,0,1,5.028,0h0a3.56,3.56,0,0,1,0,5.028l-13.175,13.174A3.531,3.531,0,0,1,423.4,380.862ZM436.573,361.4a2.73,2.73,0,0,0-1.938.8L421.46,375.372a2.741,2.741,0,0,0,3.877,3.876l13.174-13.174a2.74,2.74,0,0,0-1.938-4.678Z" transform="translate(-416.094 -356.801)" fill="#fff"/>
      <g id="Group_1" data-name="Group 1" transform="translate(3.732 3.787)">
        <path id="Path_3" data-name="Path 3" d="M423.344,380.889a3.544,3.544,0,0,1-3.54-3.54V364.134a3.54,3.54,0,0,1,7.08,0v13.215A3.544,3.544,0,0,1,423.344,380.889Zm0-19.485a2.734,2.734,0,0,0-2.73,2.73v13.215a2.73,2.73,0,1,0,5.461,0V364.134A2.734,2.734,0,0,0,423.344,361.4Z" transform="translate(-419.804 -360.594)" fill="#fff"/>
        <path id="Path_4" data-name="Path 4" d="M450.352,380.889a3.543,3.543,0,0,1-3.54-3.54V364.134a3.54,3.54,0,1,1,7.08,0v13.215A3.544,3.544,0,0,1,450.352,380.889Zm0-19.485a2.734,2.734,0,0,0-2.731,2.73v13.215a2.731,2.731,0,0,0,5.461,0V364.134A2.734,2.734,0,0,0,450.352,361.4Z" transform="translate(-433.566 -360.594)" fill="#fff"/>
      </g>
      <path id="Path_5" data-name="Path 5" d="M434.272,380.663H417.907a5.718,5.718,0,0,1-5.712-5.712V358.585a5.718,5.718,0,0,1,5.712-5.712h16.366a5.718,5.718,0,0,1,5.712,5.712V374.95A5.719,5.719,0,0,1,434.272,380.663Zm-16.366-26.976a4.9,4.9,0,0,0-4.9,4.9V374.95a4.9,4.9,0,0,0,4.9,4.9h16.366a4.9,4.9,0,0,0,4.9-4.9V358.585a4.9,4.9,0,0,0-4.9-4.9Z" transform="translate(-412.195 -352.873)" fill="#fff"/>
      <rect id="Rectangle_1" data-name="Rectangle 1" width="6.62" height="0.814" transform="translate(7.255 23.262)" fill="#fff"/>
      <rect id="Rectangle_2" data-name="Rectangle 2" width="6.61" height="0.814" transform="translate(13.889 3.787)" fill="#fff"/>
    </g>
    <g id="Group_5" data-name="Group 5" transform="translate(448.962 352.074)">
      <g id="Group_4" data-name="Group 4">
        <g id="Group_3" data-name="Group 3">
          <path id="Path_6" data-name="Path 6" d="M494.784,376a7.381,7.381,0,0,0,1.79-.181,3.284,3.284,0,0,0,1.134-.493,1.645,1.645,0,0,0,.591-.739,2.626,2.626,0,0,0,.165-.953,2.2,2.2,0,0,0-1.052-1.856,15.043,15.043,0,0,0-3.615-1.594q-1.117-.394-2.234-.9a8.222,8.222,0,0,1-2-1.282,6.121,6.121,0,0,1-1.446-1.873,5.873,5.873,0,0,1-.558-2.678,6.631,6.631,0,0,1,.591-2.842,6.06,6.06,0,0,1,1.676-2.152,7.658,7.658,0,0,1,2.628-1.364,11.8,11.8,0,0,1,3.483-.476,13.931,13.931,0,0,1,6.737,1.577l-1.48,4.041a14.06,14.06,0,0,0-2.119-.87,9.19,9.19,0,0,0-2.809-.378,5.151,5.151,0,0,0-2.645.51,1.717,1.717,0,0,0-.8,1.561,1.8,1.8,0,0,0,.295,1.052,2.871,2.871,0,0,0,.838.772,7.358,7.358,0,0,0,1.249.624q.706.28,1.56.575,1.775.658,3.09,1.3a8.247,8.247,0,0,1,2.184,1.5,5.417,5.417,0,0,1,1.3,2,8.064,8.064,0,0,1,.427,2.793,5.932,5.932,0,0,1-2.234,4.945q-2.235,1.758-6.736,1.758a18.7,18.7,0,0,1-2.727-.181,17.666,17.666,0,0,1-2.153-.444,12.328,12.328,0,0,1-1.61-.559,12.045,12.045,0,0,1-1.133-.559l1.446-4.074a12.846,12.846,0,0,0,2.513,1A13.034,13.034,0,0,0,494.784,376Z" transform="translate(-487.161 -354.386)" fill="#fff"/>
          <path id="Path_7" data-name="Path 7" d="M529.239,368.016q.722-.784,1.494-1.633t1.493-1.682q.723-.833,1.362-1.585t1.1-1.307h5.822q-1.741,2-3.4,3.82t-3.632,3.754a22.475,22.475,0,0,1,2.038,2.123q1.05,1.234,2.038,2.551t1.806,2.633q.822,1.317,1.381,2.4h-5.63q-.525-.856-1.2-1.894t-1.428-2.075q-.754-1.038-1.59-1.993a13.385,13.385,0,0,0-1.657-1.615v7.575h-4.9V355.8l4.9-.789Z" transform="translate(-506.108 -353.571)" fill="#fff"/>
          <path id="Path_8" data-name="Path 8" d="M593.238,372.767a6.145,6.145,0,0,0-1.085-2.5,5.124,5.124,0,0,0-2.119-1.626,8.637,8.637,0,0,0-3.4-.575,9.157,9.157,0,0,0-4.93,1.61,6.847,6.847,0,0,0-1.922-1.133,8.15,8.15,0,0,0-3.039-.477c-.636,0-9.5.394-9.5.394q-.33,1.282-.742,2.776t-.858,3.023q-.444,1.528-.907,2.974t-.891,2.629q-.461-1.183-.973-2.629t-1.006-2.974q-.5-1.528-.942-3.023t-.775-2.776h-5.192a91.791,91.791,0,0,0,3.156,9.184q1.677,4.09,3.353,7.376a5.686,5.686,0,0,1-1.2,1.955,2.735,2.735,0,0,1-2.021.706,7.612,7.612,0,0,1-1.25-.1,8.414,8.414,0,0,1-1.347-.361l-.855,3.91a9.486,9.486,0,0,0,1.6.476,9.878,9.878,0,0,0,2.122.214,8.424,8.424,0,0,0,2.418-.312,5.341,5.341,0,0,0,1.859-.986,7.751,7.751,0,0,0,1.513-1.709,19.224,19.224,0,0,0,1.382-2.514q1.91-4.107,3.525-8.477c.147-.4.29-.805.434-1.209v9.128h4.9v-13.34c.306-.044.625-.082.952-.115s.646-.049.953-.049a2.255,2.255,0,0,1,2.087.986,6.746,6.746,0,0,1,.608,3.351v9.167h4.9v-9.43q0-.952-.066-1.791a7.5,7.5,0,0,0-.3-1.593,4.3,4.3,0,0,1,1.167-.493,4.4,4.4,0,0,1,1.1-.2,2.257,2.257,0,0,1,2.087.986,6.758,6.758,0,0,1,.608,3.351v9.167h4.9v-9.759A16.12,16.12,0,0,0,593.238,372.767Z" transform="translate(-521.623 -360.224)" fill="#fff"/>
          <path id="Path_9" data-name="Path 9" d="M637.78,377.167a10.563,10.563,0,0,1,.707-4.025,8.632,8.632,0,0,1,1.856-2.875,7.722,7.722,0,0,1,2.644-1.742,8.285,8.285,0,0,1,3.073-.591,7.638,7.638,0,0,1,5.816,2.251q2.136,2.251,2.135,6.621,0,.427-.032.937t-.066.9H642.808a3.254,3.254,0,0,0,1.413,2.4,5.676,5.676,0,0,0,3.351.887,14.151,14.151,0,0,0,2.645-.247,9.977,9.977,0,0,0,2.12-.608l.657,3.976a6.787,6.787,0,0,1-1.052.394,13.766,13.766,0,0,1-1.462.345q-.806.148-1.725.246a17.268,17.268,0,0,1-1.84.1,10.89,10.89,0,0,1-4.058-.69A7.891,7.891,0,0,1,640,383.558a7.5,7.5,0,0,1-1.676-2.842A11.244,11.244,0,0,1,637.78,377.167Zm11.5-1.873a5.085,5.085,0,0,0-.213-1.216,3.057,3.057,0,0,0-.559-1.051,2.981,2.981,0,0,0-.953-.756,3.106,3.106,0,0,0-1.429-.3,3.285,3.285,0,0,0-1.413.279,2.919,2.919,0,0,0-.986.74,3.326,3.326,0,0,0-.608,1.068,7.133,7.133,0,0,0-.312,1.232Z" transform="translate(-563.909 -360.155)" fill="#fff"/>
          <path id="Path_10" data-name="Path 10" d="M674.644,359.277l4.9-.789v5.093h5.881v4.075h-5.881v6.079a4.829,4.829,0,0,0,.542,2.465,2.324,2.324,0,0,0,2.184.92,9.355,9.355,0,0,0,1.627-.148,8.355,8.355,0,0,0,1.528-.41l.691,3.811a13.832,13.832,0,0,1-1.972.624,11.5,11.5,0,0,1-2.662.263,8.758,8.758,0,0,1-3.318-.542,5.2,5.2,0,0,1-2.1-1.512,5.617,5.617,0,0,1-1.1-2.349,13.819,13.819,0,0,1-.313-3.056Z" transform="translate(-582.694 -355.342)" fill="#fff"/>
          <path id="Path_11" data-name="Path 11" d="M712.463,372.834q-.658-.164-1.545-.345a9.567,9.567,0,0,0-1.906-.18,8.886,8.886,0,0,0-1.1.082,6.507,6.507,0,0,0-.97.181V385.78h-4.9V369.417a29.521,29.521,0,0,1,3.105-.871,17.889,17.889,0,0,1,3.992-.411q.394,0,.953.049t1.117.131q.558.082,1.117.2a5.305,5.305,0,0,1,.953.279Z" transform="translate(-596.656 -360.258)" fill="#fff"/>
          <path id="Path_12" data-name="Path 12" d="M733.822,354.966a2.688,2.688,0,0,1-.87,2.119,3.116,3.116,0,0,1-4.107,0,3.014,3.014,0,0,1,0-4.239,3.118,3.118,0,0,1,4.107,0A2.691,2.691,0,0,1,733.822,354.966Zm-.46,22.63h-4.9V360.313h4.9Z" transform="translate(-609.868 -352.074)" fill="#fff"/>
          <path id="Path_13" data-name="Path 13" d="M751.877,373.717l3.435-4.845h5.061l-6,8.4a51.238,51.238,0,0,1,3.663,4.708,43.27,43.27,0,0,1,2.567,4.171h-5.251q-.268-.494-.661-1.233t-.887-1.545a7.962,7.962,0,0,0-1.028-1.365q-.536-.558-1.056-1.016-.5.425-1.01.94a6.7,6.7,0,0,0-.975,1.286q-.461.771-.907,1.525t-.791,1.409h-4.98q.413-.808,1.09-1.934t1.485-2.323a29.046,29.046,0,0,1,1.749-2.326q.94-1.129,1.846-2.119l-3.1-4.4q-1.489-2.113-2.942-4.178h5.29Z" transform="translate(-617.554 -360.633)" fill="#fff"/>
        </g>
      </g>
    </g>
  </g>
</svg>
